<?xml version="1.0" standalone="no"?><!DOCTYPE svg PUBLIC "-//W3C//DTD SVG 1.1//EN" "http://www.w3.org/Graphics/SVG/1.1/DTD/svg11.dtd"><svg t="1535529242060" class="icon" style="" viewBox="0 0 1024 1024" version="1.1" xmlns="http://www.w3.org/2000/svg" p-id="13164" xmlns:xlink="http://www.w3.org/1999/xlink" width="30" height="30"><defs><style type="text/css"></style></defs><path d="M964.843 885.93L829.035 750.166c59.178-75.946 94.805-171.093 94.805-274.602 0-247.04-200.981-448-448-448-247.04 0-448 200.96-448 448 0 247.018 200.96 448 448 448 103.36 0 198.4-35.52 274.261-94.571l135.83 135.83c21.93 21.909 57.365 22.015 79.146 0.255 21.782-21.802 21.654-57.194-0.234-79.146z m-851.67-410.367c0-199.979 162.688-362.667 362.667-362.667s362.667 162.688 362.667 362.667S675.819 838.229 475.84 838.229 113.173 675.541 113.173 475.563z m513.622-42.667H518.507v-108.31c0-22.655-19.115-41.023-42.667-41.023-23.573 0-42.667 18.346-42.667 41.024v108.309H324.864c-22.656 0-41.024 19.115-41.024 42.688s18.347 42.667 41.024 42.667h108.31v108.288c0 22.656 19.093 41.045 42.666 41.045 23.552 0 42.667-18.368 42.667-41.045V518.25h108.288c22.656 0 41.045-19.094 41.045-42.667s-18.39-42.688-41.045-42.688z" fill="#666666" p-id="13165"></path></svg>