<?xml version="1.0" standalone="no"?><!DOCTYPE svg PUBLIC "-//W3C//DTD SVG 1.1//EN" "http://www.w3.org/Graphics/SVG/1.1/DTD/svg11.dtd"><svg t="1535529580919" class="icon" style="" viewBox="0 0 1024 1024" version="1.1" xmlns="http://www.w3.org/2000/svg" p-id="1057" xmlns:xlink="http://www.w3.org/1999/xlink" width="30" height="30"><defs><style type="text/css"></style></defs><path d="M783.713064 712.557411a374.930374 374.930374 0 1 0-70.898248 71.53697l40.239546-31.297424zM136.047989 820.50159a484.151999 484.151999 0 1 1 733.25395-42.794438l134.131821 136.047989a63.872295 63.872295 0 0 1 0 90.698659 63.872295 63.872295 0 0 1-91.976106 0l-132.215651-134.13182a483.513276 483.513276 0 0 1-643.194014-49.82039z m399.201846-284.870438h110.499071a51.097836 51.097836 0 1 0 0-102.195672H322.555091a51.097836 51.097836 0 1 0 0 102.195672h212.694744z" p-id="1058" fill="#666666"></path></svg>